<?xml version="1.0" standalone="no"?>
<!DOCTYPE svg PUBLIC "-//W3C//DTD SVG 20010904//EN"
 "http://www.w3.org/TR/2001/REC-SVG-20010904/DTD/svg10.dtd">
<svg version="1.0" xmlns="http://www.w3.org/2000/svg"
 width="1798.000000pt" height="2260.000000pt" viewBox="0 0 1798.000000 2260.000000"
 preserveAspectRatio="xMidYMid meet">
<metadata>
Created by potrace 1.16, written by Peter Selinger 2001-2019
</metadata>
<g transform="translate(0.000000,2260.000000) scale(0.100000,-0.100000)"
fill="#000000" stroke="none">
<path d="M9070 21689 c-2284 -116 -4102 -1010 -5506 -2704 -619 -748 -1135
-1638 -1507 -2600 -541 -1402 -817 -3055 -817 -4900 0 -2121 366 -4006 1097
-5655 431 -972 1020 -1908 1643 -2610 74 -84 137 -157 139 -163 4 -12 -517 -3
-794 14 -597 35 -1374 140 -1957 262 l-68 15 0 -1033 0 -1033 267 -66 c614
-149 1164 -239 1778 -291 498 -42 758 -45 3643 -45 1534 0 2762 4 2762 9 0 4
64 11 143 15 466 23 1019 103 1467 212 1846 450 3273 1578 4280 3384 382 686
705 1478 969 2377 66 224 173 625 168 629 -1 0 -508 115 -1127 253 -619 139
-1134 254 -1146 257 -19 5 -23 -5 -54 -123 -646 -2521 -1824 -4087 -3490
-4643 -498 -166 -1035 -247 -1587 -238 l-193 3 41 60 c119 178 263 441 364
670 364 822 562 1812 615 3070 6 155 10 2443 10 6473 0 3427 3 6232 8 6232 28
0 319 -56 422 -81 589 -145 1106 -400 1584 -783 177 -141 495 -454 646 -636
625 -752 1109 -1736 1474 -2999 35 -122 66 -224 68 -227 4 -4 2357 462 2364
469 2 2 -17 82 -42 178 -614 2354 -1643 4043 -3085 5069 -1129 802 -2506 1197
-4143 1189 -155 -1 -351 -6 -436 -10z m-1370 -8421 c0 -5727 -3 -6440 -30
-6873 -50 -805 -146 -1338 -311 -1723 -115 -269 -285 -516 -502 -731 l-95 -94
-108 84 c-733 573 -1371 1434 -1821 2459 -534 1215 -821 2683 -851 4365 -48
2623 368 4723 1235 6239 537 938 1206 1614 2023 2044 125 66 424 201 448 202
9 0 12 -1201 12 -5972z"/>
</g>
</svg>
